<?xml version="1.0" encoding="UTF-8"?>
<svg width="821px" height="821px" viewBox="0 0 821 821" version="1.1" xmlns="http://www.w3.org/2000/svg" xmlns:xlink="http://www.w3.org/1999/xlink">
    <title>01_swiftui</title>
    <g id="Icon" stroke="none" stroke-width="1" fill="none" fill-rule="evenodd">
        <g id="AppIcon-SwiftUI" transform="translate(-101, -102)" fill="color(display-p3 1.000 1.000 1.000)">
            <path d="M511.901786,102.451172 C738.338786,102.451172 921.901786,286.014172 921.901786,512.451172 C921.901786,738.888172 738.338786,922.451172 511.901786,922.451172 C285.464786,922.451172 101.901786,738.888172 101.901786,512.451172 C101.901786,286.014172 285.464786,102.451172 511.901786,102.451172 Z M550.104559,220 C560.11175,234.145419 570.499497,250.685756 581.281893,269.621011 C592.064289,288.54226 601.197613,310.054502 608.710053,334.157737 C616.208399,358.246966 619.957572,385.025225 619.957572,414.464504 C619.957572,430.528659 618.181648,446.550797 614.615705,462.516914 C611.063857,478.483031 607.455631,490.863774 603.80512,499.659144 C588.202359,490.667699 570.259888,478.959213 549.963613,464.519681 C529.653243,450.080149 508.440817,434.21207 486.312239,416.901438 C464.183662,399.604811 442.393355,381.860012 420.927226,363.695053 C399.475191,345.530094 379.700417,328.135429 361.617,311.497055 C343.519488,294.85868 328.508701,280.237078 316.58464,267.604238 C340.446857,304.326307 366.521933,339.64784 394.809866,373.596847 C423.0978,407.531848 453.02071,441.915021 484.578599,476.70435 C442.055084,450.136171 401.011506,421.97138 361.461959,392.237988 C321.926507,362.504597 283.673666,331.188599 246.731627,298.304 C282.137351,349.171489 322.546671,399.506773 367.959586,449.323859 C413.372501,499.12694 465.621315,547.655533 524.706026,594.881626 C507.764274,604.251216 489.638573,612.150242 470.286639,618.550694 C450.948799,624.951146 426.466417,628.158375 396.825399,628.158375 C372.779951,628.158375 347.761973,624.769077 321.771466,617.976474 C295.795052,611.183872 271.171724,602.192427 247.873292,591.016145 C224.588954,579.825858 204.969222,567.823259 189,555.022355 C200.148857,572.991239 215.596577,592.54273 235.329067,613.676827 C255.047462,634.796919 278.529124,654.838597 305.75996,673.759846 C332.990795,692.695101 363.435208,708.227051 397.121386,720.369704 C430.79347,732.512356 467.256292,738.590685 506.523946,738.590685 C531.541924,738.590685 552.613404,736.237783 569.738386,731.559991 C586.863368,726.882199 601.874155,721.420106 614.770746,715.215729 C627.653243,708.997347 640.070617,703.549259 652.008773,698.857462 C663.932835,694.17967 677.111319,691.826768 691.544226,691.826768 C707.710772,691.826768 720.846973,694.697868 730.952826,700.440068 C741.05868,706.168263 748.853013,712.624736 754.335826,719.795484 C759.818639,726.966231 763.807421,732.666415 766.316266,736.868025 C767.472026,738.968829 768.811017,740.313345 770.361427,740.887565 C771.897742,741.461785 773.236732,739.837162 774.392492,735.999692 C775.167697,733.142597 775.787861,729.893352 776.267079,726.251957 C776.760391,722.624568 777,718.50699 777,713.927235 C777,705.510011 775.787861,694.795906 773.391773,681.798926 C770.981591,668.787941 766.17532,654.264377 758.958867,638.200223 C751.742413,622.136068 741.100964,605.301618 727.062707,587.710879 C731.488422,574.713899 734.27916,561.660898 735.420826,548.565881 C736.576586,535.456859 737.154466,524.616706 737.154466,516.003406 C737.154466,496.690007 734.124119,474.561529 728.063426,449.603967 C722.002733,424.646405 711.854595,398.596425 697.604919,371.44002 C683.369337,344.283616 664.228822,317.659416 640.169279,291.553414 C616.109737,265.461417 586.088163,241.596274 550.104559,220 Z" id="01_swiftui"></path>
        </g>
    </g>
</svg>