<?xml version="1.0" encoding="UTF-8"?>
<svg width="820px" height="820px" viewBox="0 0 820 820" version="1.1" xmlns="http://www.w3.org/2000/svg" xmlns:xlink="http://www.w3.org/1999/xlink">
    <title>01_cart</title>
    <g id="Icon" stroke="none" stroke-width="1" fill="none" fill-rule="evenodd">
        <g id="AppIcon-02" transform="translate(-102, -102)" fill="color(display-p3 1.000 1.000 1.000)">
            <path d="M512,102 C738.437,102 922,285.563 922,512 C922,738.437 738.437,922 512,922 C285.563,922 102,738.437 102,512 C102,285.563 285.563,102 512,102 Z M455.807469,694.373534 C444.112103,694.373534 434.244137,698.437133 426.203572,706.56433 C418.163008,714.691527 414.142725,724.415137 414.142725,735.735162 C414.142725,747.345443 418.163008,757.069054 426.203572,764.905994 C434.244137,772.742934 444.112103,776.661404 455.807469,776.661404 C467.210452,776.661404 477.005321,772.742934 485.192078,764.905994 C493.378835,757.069054 497.472213,747.345443 497.472213,735.735162 C497.472213,724.415137 493.378835,714.691527 485.192078,706.56433 C477.005321,698.437133 467.210452,694.373534 455.807469,694.373534 Z M651.631766,694.373534 C640.228783,694.373534 630.433913,698.437133 622.247157,706.56433 C614.0604,714.691527 609.967022,724.415137 609.967022,735.735162 C609.967022,747.345443 614.0604,757.069054 622.247157,764.905994 C630.433913,772.742934 640.228783,776.661404 651.631766,776.661404 C663.327132,776.661404 673.195098,772.742934 681.235663,764.905994 C689.276227,757.069054 693.29651,747.345443 693.29651,735.735162 C693.29651,724.415137 689.276227,714.691527 681.235663,706.56433 C673.195098,698.437133 663.327132,694.373534 651.631766,694.373534 Z M352.409812,322.515695 L277.385357,322.515695 C269.824753,322.515695 263.645413,324.991905 258.847338,329.944324 C254.049262,334.896742 251.650224,341.160096 251.650224,348.734384 C251.650224,356.308672 254.049262,362.572025 258.847338,367.524444 C263.645413,372.476863 269.824753,374.953072 277.385357,374.953072 L344.122227,374.953072 L377.708756,611.795227 C380.616681,630.148309 387.741096,643.98595 399.082002,653.30815 C410.422908,662.630351 426.271097,667.291451 446.62657,667.291451 L688.275105,667.291451 C695.254124,667.291451 701.069974,665.10656 705.722653,660.736779 C710.375332,656.366997 712.701672,650.249303 712.701672,642.383697 C712.701672,634.809409 710.375332,628.837374 705.722653,624.467593 C701.069974,620.097811 695.254124,617.912921 688.275105,617.912921 L449.243702,617.912921 C443.427853,617.912921 438.629777,616.237838 434.849475,612.887672 C431.069173,609.537506 428.88823,604.803576 428.306645,598.685882 L426.125701,581.643735 L697.871257,581.643735 C715.028012,581.643735 728.186371,576.909805 737.346333,567.441945 C746.506296,557.974085 752.249447,544.646252 754.575787,527.458445 L771.587146,413.407149 C771.877938,412.241874 772.096032,410.78528 772.241429,409.037368 C772.386825,407.289455 772.459523,405.978521 772.459523,405.104564 C772.459523,398.404233 770.423976,393.087665 766.352881,389.154862 C762.281787,385.222059 756.465938,383.255657 748.905334,383.255657 L396.46487,383.255657 L392.975361,356.163012 C391.521398,345.966855 387.159511,337.80993 379.8897,331.692236 C372.619888,325.574542 363.459926,322.515695 352.409812,322.515695 Z" id="01_cart"></path>
        </g>
    </g>
</svg>