<?xml version="1.0" encoding="UTF-8"?>
<svg width="821px" height="821px" viewBox="0 0 821 821" version="1.1" xmlns="http://www.w3.org/2000/svg" xmlns:xlink="http://www.w3.org/1999/xlink">
    <title>01_pawprint</title>
    <g id="Icon" stroke="none" stroke-width="1" fill="none" fill-rule="evenodd">
        <g id="AppIcon-03" transform="translate(-101, -102)" fill="color(display-p3 1.000 1.000 1.000)">
            <path d="M511.901786,102.451172 C738.338786,102.451172 921.901786,286.014172 921.901786,512.451172 C921.901786,738.888172 738.338786,922.451172 511.901786,922.451172 C285.464786,922.451172 101.901786,738.888172 101.901786,512.451172 C101.901786,286.014172 285.464786,102.451172 511.901786,102.451172 Z M511.158929,452.719233 C494.320833,452.719233 480.882738,456.281337 470.844643,463.405544 C460.806548,470.529752 452.71131,479.75884 446.558929,491.092807 C440.406548,502.426774 434.416071,514.408396 428.5875,527.037674 C425.673214,532.866571 422.677976,538.614512 419.601786,544.281495 C416.525595,549.948479 413.368452,555.534505 410.130357,561.039575 C405.597024,568.163783 400.173214,574.478422 393.858929,579.983491 C387.544643,585.488561 380.9875,590.831717 374.1875,596.012959 C361.882738,606.051615 350.3875,617.385583 339.701786,630.01486 C329.016071,642.644138 323.673214,659.645088 323.673214,681.017712 C323.673214,706.600095 331.525595,727.567934 347.230357,743.921229 C362.935119,760.274524 383.416071,768.451172 408.673214,768.451172 C421.301786,768.451172 432.230357,767.155861 441.458929,764.56524 C450.6875,761.974619 459.673214,759.060171 468.416071,755.821894 C475.216071,753.555101 482.016071,751.531178 488.816071,749.750126 C495.616071,747.969074 503.06369,747.078548 511.158929,747.078548 C519.254167,747.078548 526.782738,747.969074 533.744643,749.750126 C540.706548,751.531178 547.5875,753.555101 554.3875,755.821894 C562.806548,759.060171 571.71131,761.974619 581.101786,764.56524 C590.492262,767.155861 601.501786,768.451172 614.130357,768.451172 C639.3875,768.451172 659.7875,760.274524 675.330357,743.921229 C690.873214,727.567934 698.644643,706.600095 698.644643,681.017712 C698.644643,659.645088 693.301786,642.644138 682.616071,630.01486 C671.930357,617.385583 660.597024,606.051615 648.616071,596.012959 C641.816071,590.831717 635.258929,585.488561 628.944643,579.983491 C622.630357,574.478422 617.206548,568.325697 612.673214,561.525316 C609.11131,556.020247 605.873214,550.353263 602.958929,544.524366 C600.044643,538.695468 597.130357,532.866571 594.216071,527.037674 C588.3875,514.408396 582.316071,502.426774 576.001786,491.092807 C569.6875,479.75884 561.592262,470.529752 551.716071,463.405544 C541.839881,456.281337 528.320833,452.719233 511.158929,452.719233 Z M309.101786,400.744898 C291.939881,400.744898 277.449405,409.32633 265.630357,426.489195 C253.81131,443.652059 247.901786,464.700855 247.901786,489.635583 C247.901786,514.246482 253.81131,535.052408 265.630357,552.053358 C277.449405,569.054309 291.939881,577.554784 309.101786,577.554784 C326.26369,577.554784 340.754167,569.054309 352.573214,552.053358 C364.392262,535.052408 370.301786,514.246482 370.301786,489.635583 C370.301786,464.700855 364.392262,443.652059 352.573214,426.489195 C340.754167,409.32633 326.26369,400.744898 309.101786,400.744898 Z M713.701786,400.744898 C696.539881,400.744898 682.049405,409.32633 670.230357,426.489195 C658.41131,443.652059 652.501786,464.700855 652.501786,489.635583 C652.501786,514.246482 658.41131,535.052408 670.230357,552.053358 C682.049405,569.054309 696.539881,577.554784 713.701786,577.554784 C730.86369,577.554784 745.354167,569.054309 757.173214,552.053358 C768.992262,535.052408 774.901786,514.246482 774.901786,489.635583 C774.901786,464.700855 768.992262,443.652059 757.173214,426.489195 C745.354167,409.32633 730.86369,400.744898 713.701786,400.744898 Z M430.530357,257.451172 C413.368452,257.451172 398.877976,265.87069 387.058929,282.709727 C375.239881,299.548764 369.330357,320.273732 369.330357,344.884632 C369.330357,369.495532 375.239881,390.463371 387.058929,407.788149 C398.877976,425.112927 413.368452,433.775316 430.530357,433.775316 C447.692262,433.775316 462.101786,425.112927 473.758929,407.788149 C485.416071,390.463371 491.244643,369.495532 491.244643,344.884632 C491.244643,320.273732 485.416071,299.548764 473.758929,282.709727 C462.101786,265.87069 447.692262,257.451172 430.530357,257.451172 Z M592.273214,257.451172 C575.11131,257.451172 560.701786,265.87069 549.044643,282.709727 C537.3875,299.548764 531.558929,320.273732 531.558929,344.884632 C531.558929,369.495532 537.3875,390.463371 549.044643,407.788149 C560.701786,425.112927 575.11131,433.775316 592.273214,433.775316 C609.435119,433.775316 623.925595,425.112927 635.744643,407.788149 C647.56369,390.463371 653.473214,369.495532 653.473214,344.884632 C653.473214,320.273732 647.56369,299.548764 635.744643,282.709727 C623.925595,265.87069 609.435119,257.451172 592.273214,257.451172 Z" id="01_pawprint"></path>
        </g>
    </g>
</svg>